<?xml version="1.0" encoding="UTF-8"?>
<svg version="1.1" xmlns="http://www.w3.org/2000/svg" width="100" height="100">
<path d="M0 0 C3.96 0 7.92 0 12 0 C13.35439668 2.70879335 13.06501451 5.00933268 13 8 C14.29879341 7.98667633 14.29879341 7.98667633 15.62382507 7.9730835 C23.78967277 7.89288605 31.95538791 7.83200944 40.12153912 7.79275131 C44.31972258 7.77188958 48.51758022 7.74359832 52.71557617 7.69824219 C56.76804106 7.65473315 60.82019285 7.63085225 64.87287331 7.62049103 C66.41784404 7.61310866 67.96279792 7.59869237 69.50763512 7.57707977 C71.67432861 7.54797692 73.83973383 7.54404663 76.0065918 7.54589844 C77.23903122 7.53701599 78.47147064 7.52813354 79.74125671 7.51898193 C83.62419027 8.09213576 85.26163038 9.235941 88 12 C89.77997782 17.09605103 88.36249699 21.31471637 86.71875 26.25 C86.46758423 27.02633789 86.21641846 27.80267578 85.9576416 28.60253906 C85.42305435 30.23861782 84.88135754 31.87238861 84.33300781 33.50390625 C83.50521871 35.98436223 82.71659533 38.47506963 81.9296875 40.96875 C81.40338801 42.56327636 80.87481455 44.15705432 80.34375 45.75 C79.99950989 46.85649902 79.99950989 46.85649902 79.64831543 47.98535156 C77.77866151 53.37947827 75.23296988 57.40072229 70 60 C65.957947 60.7743842 62.04434 60.70130807 57.94140625 60.5859375 C56.79711655 60.57744781 55.65282684 60.56895813 54.47386169 60.56021118 C50.83576464 60.52674934 47.19992186 60.45147604 43.5625 60.375 C41.08922482 60.34489141 38.61591474 60.31751718 36.14257812 60.29296875 C30.094289 60.22698149 24.04730558 60.12670281 18 60 C18.33 58.35 18.66 56.7 19 55 C19.57993713 54.99191315 20.15987427 54.98382629 20.75738525 54.97549438 C26.79209363 54.88945308 32.82647337 54.78994956 38.86083984 54.68261719 C41.11306236 54.64432843 43.365346 54.60947539 45.61767578 54.578125 C48.85471447 54.53247263 52.09133236 54.47447785 55.328125 54.4140625 C56.33554749 54.40251129 57.34296997 54.39096008 58.38092041 54.37905884 C59.32159363 54.35918915 60.26226685 54.33931946 61.23144531 54.31884766 C62.05751282 54.30552399 62.88358032 54.29220032 63.73468018 54.2784729 C66.26860981 53.96698014 67.8640738 53.39380204 70 52 C71.14942484 49.640971 72.03881528 47.46765702 72.875 45 C73.12330566 44.30173096 73.37161133 43.60346191 73.62744141 42.8840332 C74.43482585 40.59475663 75.21836238 38.29818452 76 36 C76.57290931 34.3476537 77.14582604 32.69530997 77.71875 31.04296875 C78.27253303 29.42505995 78.82465697 27.80658218 79.375 26.1875 C79.63780762 25.41728516 79.90061523 24.64707031 80.17138672 23.85351562 C81.19002918 20.79143124 82 18.2493994 82 15 C59.23 14.67 36.46 14.34 13 14 C13 30.83 13 47.66 13 65 C34.78 65.495 34.78 65.495 57 66 C57 67.65 57 69.3 57 71 C50.5223479 71.12675467 44.04501538 71.21433146 37.56640625 71.2746582 C35.36250864 71.29980574 33.15869445 71.33392827 30.95507812 71.37719727 C27.78755114 71.43783686 24.6211264 71.46620749 21.453125 71.48828125 C19.97480194 71.52699089 19.97480194 71.52699089 18.46661377 71.56648254 C17.08563507 71.56704903 17.08563507 71.56704903 15.67675781 71.56762695 C14.8684552 71.57873001 14.06015259 71.58983307 13.22735596 71.60127258 C9.83378999 70.68518274 8.79874504 68.94689631 7 66 C6.51898193 63.12089539 6.51898193 63.12089539 6.54589844 59.92456055 C6.54620056 58.72369308 6.54650269 57.52282562 6.54681396 56.28556824 C6.56745911 54.99894791 6.58810425 53.71232758 6.609375 52.38671875 C6.61684173 51.04865873 6.62253262 49.71058772 6.62652588 48.37251282 C6.64174869 44.86234992 6.68099991 41.35285626 6.7253418 37.84295654 C6.76636793 34.25672457 6.78455245 30.67038373 6.8046875 27.08398438 C6.84749867 20.05571585 6.91570832 13.02789012 7 6 C6.05125 6.04125 5.1025 6.0825 4.125 6.125 C1 6 1 6 -1 4 C-0.67 2.68 -0.34 1.36 0 0 Z " fill="#000000" transform="translate(5,8)"/>
<path d="M0 0 C2.64764845 1.67684402 2.95477045 2.85138861 3.875 5.875 C4.02602779 9.65069465 3.35110647 11.08138508 1 14 C-1.58546056 15.96138387 -2.78795025 16.01298264 -6.0625 15.8125 C-9.05890525 14.98370706 -10.15408683 14.42883312 -12 12 C-13.40457737 9.19084526 -13.24895157 7.11189466 -13 4 C-9.78942967 -1.65671915 -5.94854068 -1.27468729 0 0 Z M-6 5 C-6.33 6.32 -6.66 7.64 -7 9 C-5.68 9.33 -4.36 9.66 -3 10 C-2.67 8.68 -2.34 7.36 -2 6 C-3.32 5.67 -4.64 5.34 -6 5 Z " fill="#000000" transform="translate(25,84)"/>
<path d="M0 0 C2.5 2.125 2.5 2.125 4 5 C3.94016186 8.47061229 3.67167343 10.88054428 1.875 13.875 C-1.11945572 15.67167343 -3.52938771 15.94016186 -7 16 C-9.875 14.5 -9.875 14.5 -12 12 C-13.15697704 8.02289141 -13.41083866 5.94492892 -11.75 2.125 C-8.38466594 -1.96147708 -4.77549558 -1.17292874 0 0 Z M-6 5 C-6.33 6.32 -6.66 7.64 -7 9 C-5.68 9.33 -4.36 9.66 -3 10 C-2.67 8.68 -2.34 7.36 -2 6 C-3.32 5.67 -4.64 5.34 -6 5 Z " fill="#000000" transform="translate(64,84)"/>
</svg>
